<svg xmlns="http://www.w3.org/2000/svg" viewBox="670 500 740 1020" role="img" aria-labelledby="title">
  <title>Ateneo mark</title>
  <defs>
    <mask id="ateneo-cutout" maskUnits="userSpaceOnUse" x="670" y="500" width="740" height="1020">
      <rect x="670" y="500" width="740" height="1020" fill="#fff" />
      <path
        fill="#000"
        transform="translate(1115,1090)"
        d="M0 0 C0.14230719 42.66699015 0.15225227 85.33304723 0 128 C-0.00253847 128.72779191 -0.00507694 129.45558382 -0.00769234 130.20543003 C-0.07297655 148.77730049 -0.19595121 167.34710118 -0.41705322 185.91784668 C-0.47639774 191.00926754 -0.5169475 196.10031125 -0.54144287 201.1920166 C-0.57116371 207.17014921 -0.63879826 213.14663194 -0.73649216 219.12402916 C-0.76594719 221.30718744 -0.7820783 223.49057292 -0.78380203 225.67392921 C-0.78850075 228.64719133 -0.84209679 231.61569475 -0.90820312 234.58813477 C-0.89814177 235.44684551 -0.88808041 236.30555626 -0.87771416 237.19028854 C-1.00766512 240.9282167 -1.26301494 243.14607332 -3.75602722 246.03466606 C-5.77247004 247.8002005 -7.85502615 249.39560197 -10 251 C-11.78488013 252.86303166 -13.5379107 254.75736159 -15.25 256.6875 C-23.45500237 265.78956337 -31.87824025 274.37357526 -41.50390625 281.9921875 C-43.66518819 283.73068346 -45.66943089 285.53866036 -47.6875 287.4375 C-53.80392297 292.8409657 -61.0215143 296.82577839 -68 301 C-69.12535156 301.68191406 -70.25070312 302.36382813 -71.41015625 303.06640625 C-86.7288375 312.10424561 -102.34097939 319.82068749 -119.81347656 323.52832031 C-121.82067565 323.96131592 -123.81383296 324.45811387 -125.8046875 324.9609375 C-135.68748569 327.16385162 -145.54275404 327.28707313 -155.625 327.3125 C-156.32183899 327.31617584 -157.01867798 327.31985168 -157.7366333 327.32363892 C-179.17599656 327.38261972 -198.12358666 323.43197033 -217 313 C-217.99 312.45472656 -218.98 311.90945313 -220 311.34765625 C-244.17019505 296.97903739 -261.03557586 271.92706133 -268 245 C-276.19276049 206.32831202 -270.25556222 163.67569919 -249 130 C-248.6302002 129.40993164 -248.26040039 128.81986328 -247.87939453 128.21191406 C-243.49803029 121.3347879 -238.55466347 115.10117246 -232.98828125 109.140625 C-231.38140784 107.41063162 -229.89554875 105.66553854 -228.4375 103.8125 C-225.25591391 100.14143912 -221.70900044 97.12500372 -218 94 C-217.15824219 93.25878906 -216.31648437 92.51757812 -215.44921875 91.75390625 C-191.72610198 71.24637101 -162.96441341 57.43976588 -134 46 C-133.06575195 45.62794434 -132.13150391 45.25588867 -131.16894531 44.87255859 C-121.93885991 41.21394998 -112.63947461 37.8295226 -103.20703125 34.73046875 C-93.17316447 31.40823149 -83.17753195 27.98377235 -73.19775391 24.50268555 C-70.50144042 23.563002 -67.80349309 22.62811758 -65.10546875 21.69335938 C-53.43670747 17.63561257 -41.87122663 13.34776234 -30.34532166 8.90118408 C-26.59088291 7.45855022 -22.82701716 6.04108277 -19.0625 4.625 C-17.22365234 3.93277344 -17.22365234 3.93277344 -15.34765625 3.2265625 C-14.24292969 2.82179688 -13.13820313 2.41703125 -12 2 C-10.48212891 1.42378906 -10.48212891 1.42378906 -8.93359375 0.8359375 C-5.81181868 -0.05362291 -3.22795956 -0.05987547 0 0 Z"
      />
    </mask>
  </defs>
  <g fill="#fff" mask="url(#ateneo-cutout)">
    <path
      transform="translate(998.998291015625,768.684326171875)"
      d="M0 0 C3.90255123 0.00314429 7.80432965 -0.02034079 11.70678711 -0.0456543 C34.84216595 -0.10422373 57.76065099 1.6594203 80.56420898 5.69067383 C81.78962402 5.90127441 83.01503906 6.111875 84.27758789 6.32885742 C97.75559179 8.70525623 111.24415026 11.26674599 124.00170898 16.31567383 C125.35135742 16.83387695 125.35135742 16.83387695 126.72827148 17.36254883 C139.6054814 22.31532187 152.03491991 27.4316283 164.00170898 34.31567383 C165.20971249 34.9710346 166.41938143 35.62333393 167.63061523 36.27270508 C175.46701702 40.52455993 182.2275605 45.50926084 189.00170898 51.31567383 C190.62362191 52.5696768 192.24860023 53.81972565 193.87670898 55.06567383 C208.23831391 66.57775397 219.57928667 80.56155543 229.00170898 96.31567383 C229.66041992 97.4062207 230.31913086 98.49676758 230.99780273 99.62036133 C235.7239587 107.57672853 239.59188265 115.69844967 243.00170898 124.31567383 C243.38456055 125.27908691 243.38456055 125.27908691 243.77514648 126.26196289 C249.42429346 140.57360133 253.39140186 154.97302011 256.06420898 170.12817383 C256.19210815 170.84355316 256.32000732 171.5589325 256.45178223 172.29598999 C258.81976328 185.58616405 260.69615189 198.87650011 262.00170898 212.31567383 C262.10467285 213.27828125 262.20763672 214.24088867 262.3137207 215.23266602 C264.15429997 232.80103876 264.18520779 250.35596777 264.18920898 268.00317383 C264.19020599 269.17480072 264.191203 270.34642761 264.19223022 271.55355835 C264.19190057 274.9782303 264.18272926 278.40274724 264.16967773 281.82739258 C264.16846924 282.83201538 264.16726074 283.83663818 264.16601562 284.8717041 C264.12968138 290.59830681 263.90219475 296.29023957 263.53173828 302.00415039 C262.86886703 312.3988616 262.65979616 322.80124245 262.43172646 333.2130661 C262.35083998 336.89913608 262.26601009 340.58509813 262.18022156 344.27105713 C262.05729385 349.56248315 261.93562149 354.85393523 261.81509399 360.14541626 C261.49814557 374.04095201 261.17080428 387.93623654 260.83374023 401.83129883 C260.81690964 402.52582916 260.80007905 403.2203595 260.78273845 403.93593621 C260.3233049 422.85206589 259.79916722 441.76470218 259.13842773 460.67504883 C259.10349716 461.67671522 259.06856659 462.67838161 259.03257751 463.71040154 C258.70885627 472.94392166 258.37217529 482.17686727 258.01353455 491.40909767 C257.34908151 508.58308491 256.8743598 525.73697559 256.84155273 542.92504883 C256.83838861 543.71459269 256.83522449 544.50413654 256.83196449 545.31760597 C256.7922471 558.15193542 257.52391252 570.69751555 260.00170898 583.31567383 C260.13561035 584.02079102 260.26951172 584.7259082 260.4074707 585.45239258 C263.86640272 602.79317176 273.10687688 620.89167573 287.37670898 631.75317383 C289.2265346 632.97952062 291.10183878 634.16838379 293.00170898 635.31567383 C293.89116211 635.85708008 294.78061523 636.39848633 295.69702148 636.95629883 C310.33130799 645.02757662 327.20031063 647.51342925 343.68920898 647.56567383 C344.77685547 647.56962158 345.86450195 647.57356934 346.98510742 647.57763672 C355.25161989 647.51931175 363.2254634 646.72216502 371.36376953 645.29516602 C372.56900269 645.08682129 372.56900269 645.08682129 373.79858398 644.87426758 C374.84030762 644.67788696 374.84030762 644.67788696 375.90307617 644.47753906 C378.42526409 644.28300549 380.55180782 644.72993251 383.00170898 645.31567383 C386.58336108 679.59856182 386.58336108 679.59856182 386.00170898 696.31567383 C382.27160227 697.79367723 378.54025575 699.26850567 374.80786133 700.74072266 C372.9330526 701.48092843 371.05916289 702.22346061 369.18530273 702.96606445 C346.95576765 711.72850024 324.76459621 718.55248447 301.12670898 722.19067383 C300.45738342 722.29404053 299.78805786 722.39740723 299.09844971 722.50390625 C284.68934294 724.69838008 270.55182978 725.55486475 256.00170898 725.56567383 C255.18222778 725.56634857 254.36274658 725.56702332 253.51843262 725.56771851 C241.14099331 725.55155247 229.09888269 725.18935362 217.00170898 722.31567383 C215.93895752 722.06624023 215.93895752 722.06624023 214.85473633 721.81176758 C198.02883186 717.69207208 181.57418937 711.22344294 168.00170898 700.31567383 C167.38328125 699.81922363 166.76485352 699.32277344 166.12768555 698.8112793 C164.17501518 697.22552434 162.24032319 695.6210604 160.31420898 694.00317383 C159.71310303 693.49947266 159.11199707 692.99577148 158.49267578 692.47680664 C155.63564731 690.00564002 153.32513861 687.91027946 152.00170898 684.31567383 C151.34170898 684.31567383 150.68170898 684.31567383 150.00170898 684.31567383 C146.73909559 680.51799184 143.89047356 676.40114223 141.00170898 672.31567383 C140.45901367 671.56157227 139.91631836 670.8074707 139.35717773 670.03051758 C131.96533977 658.8103999 123.51509866 639.94678904 124.00170898 626.31567383 C117.09773111 629.05121223 112.74154387 633.29554002 107.64624023 638.58911133 C104.27393972 642.06601792 100.69370161 645.18729586 97.00170898 648.31567383 C95.93985356 649.22897242 94.87871922 650.14310974 93.81811523 651.05786133 C65.66620299 675.31567383 65.66620299 675.31567383 62.00170898 675.31567383 C62.00170898 675.97567383 62.00170898 676.63567383 62.00170898 677.31567383 C59.86889648 678.72583008 59.86889648 678.72583008 56.87670898 680.37817383 C52.34934769 682.93368787 48.01190286 685.60733749 43.68920898 688.50317383 C28.85829626 698.22846686 12.6352463 706.19004236 -3.99829102 712.31567383 C-4.68068848 712.57010254 -5.36308594 712.82453125 -6.06616211 713.08666992 C-25.01530189 720.05216399 -45.00147521 724.63601104 -64.99829102 727.31567383 C-65.71082031 727.4186377 -66.42334961 727.52160156 -67.1574707 727.62768555 C-105.64976185 733.01592533 -147.37008053 730.65186172 -183.99829102 717.31567383 C-184.95622559 716.98051758 -185.91416016 716.64536133 -186.90112305 716.30004883 C-199.92691234 711.71804846 -211.60225139 706.17326095 -223.11645508 698.55102539 C-225.74602208 696.82481768 -228.43927131 695.20549957 -231.12329102 693.56567383 C-235.82791551 690.54896805 -239.89809573 687.09659161 -243.99829102 683.31567383 C-245.39154864 682.10437149 -246.7873788 680.89602167 -248.18579102 679.69067383 C-251.24903004 677.00737143 -254.15219987 674.23118183 -256.99829102 671.31567383 C-257.75883789 670.57704102 -258.51938477 669.8384082 -259.30297852 669.07739258 C-260.5443457 667.8650293 -260.5443457 667.8650293 -261.81079102 666.62817383 C-262.99608398 665.47768555 -262.99608398 665.47768555 -264.20532227 664.30395508 C-265.99829102 662.31567383 -265.99829102 662.31567383 -265.99829102 660.31567383 C-266.65829102 660.31567383 -267.31829102 660.31567383 -267.99829102 660.31567383 C-282.36439916 644.00573709 -291.94403569 623.49169412 -297.97485352 602.79223633 C-298.79078244 600.02056938 -299.69075425 597.33743235 -300.68579102 594.62817383 C-302.57109182 588.99345458 -303.23334613 583.18744436 -303.99829102 577.31567383 C-304.12592331 576.34500977 -304.12592331 576.34500977 -304.25613403 575.35473633 C-305.74160055 563.83474927 -306.36310599 552.48938375 -306.31079102 540.87817383 C-306.30963287 540.073396 -306.30847473 539.26861816 -306.30728149 538.43945312 C-306.27331637 526.47542491 -305.64718613 515.0200941 -302.99829102 503.31567383 C-302.79333008 502.23543945 -302.58836914 501.15520508 -302.37719727 500.04223633 C-299.04678984 483.61774259 -293.04417299 467.96678999 -284.99829102 453.31567383 C-284.5090918 452.40180908 -284.5090918 452.40180908 -284.01000977 451.46948242 C-277.72775381 439.74656754 -270.16478917 429.41619197 -261.14282227 419.65161133 C-258.47553019 416.74625493 -255.93778226 413.73974609 -253.40844727 410.71411133 C-251.99829102 409.31567383 -251.99829102 409.31567383 -249.99829102 409.31567383 C-249.99829102 408.65567383 -249.99829102 407.99567383 -249.99829102 407.31567383 C-246.5300125 404.08635151 -242.73441801 401.22846914 -238.99829102 398.31567383 C-238.04954102 397.57575195 -237.10079102 396.83583008 -236.12329102 396.07348633 C-223.98104841 386.80182825 -211.33501981 378.64609002 -197.91430664 371.36401367 C-196.14450935 370.39567657 -194.39087633 369.39795219 -192.63891602 368.39770508 C-173.30778046 357.59632173 -152.49116774 349.76462483 -131.42480469 343.10888672 C-128.55290149 342.17007864 -125.7366376 341.11785861 -122.91577148 340.03710938 C-119.5374299 338.76603739 -116.11197521 337.63755234 -112.68579102 336.50317383 C-111.90727783 336.24528076 -111.12876465 335.9873877 -110.32666016 335.72167969 C-107.88507075 334.91596741 -105.44202643 334.11485198 -102.99829102 333.31567383 C-102.24612305 333.06914063 -101.49395508 332.82260742 -100.71899414 332.56860352 C-91.02142374 329.40524758 -81.26962819 326.52597891 -71.43579102 323.81567383 C-63.75820577 321.69694898 -56.17368459 319.45777926 -48.64501953 316.86206055 C-41.07257099 314.27991969 -33.41662512 311.98201546 -25.76043701 309.66357422 C-11.66970806 305.39647305 2.34970163 300.98106945 16.28881836 296.23754883 C20.91711189 294.66479537 25.55306646 293.11510273 30.18920898 291.56567383 C30.99028076 291.2959375 31.79135254 291.02620117 32.61669922 290.74829102 C37.12953615 289.23733602 41.65835867 287.81307582 46.21655273 286.44458008 C53.38212721 284.25083366 60.37729154 281.67494456 67.37670898 279.00317383 C68.01167297 278.76134369 68.64663696 278.51951355 69.30084229 278.27035522 C82.33321222 273.29621044 94.75953261 267.68521 106.99536133 260.97900391 C110.26943243 259.18972813 113.52740579 257.66736607 117.00170898 256.31567383 C116.90753586 249.61583621 116.80005558 242.91629637 116.68432617 236.21679688 C116.64660048 233.94893954 116.6116625 231.6810337 116.57983398 229.41308594 C116.14092864 198.49083319 113.39313302 169.59288841 103.00170898 140.31567383 C102.69217285 139.43959473 102.38263672 138.56351563 102.0637207 137.66088867 C90.68745846 106.04704107 69.86265966 81.70388415 39.23608398 67.13989258 C32.40486088 64.07030703 25.24136558 62.15931309 18.00170898 60.31567383 C17.12772461 60.08106445 16.25374023 59.84645508 15.35327148 59.60473633 C-7.18377041 53.99081614 -36.42555453 55.44017301 -58.99829102 60.31567383 C-59.93560059 60.51435059 -60.87291016 60.71302734 -61.83862305 60.91772461 C-74.85342013 63.76838156 -86.46822923 67.62458594 -97.99829102 74.31567383 C-99.03469727 74.90477539 -100.07110352 75.49387695 -101.13891602 76.10083008 C-112.42846575 82.87147535 -120.43230687 91.44712236 -123.99829102 104.31567383 C-125.28673229 116.65497683 -123.16870051 126.57959245 -118.81958008 138.06469727 C-117.44610166 141.829106 -116.31185633 145.65884511 -115.18579102 149.50317383 C-114.97929932 150.18581299 -114.77280762 150.86845215 -114.56005859 151.57177734 C-108.99811428 170.46276586 -110.68360076 191.52038512 -119.84985352 208.88598633 C-130.18282358 226.24498353 -148.79542879 237.38046807 -167.99829102 242.31567383 C-192.08581657 247.75327832 -216.57659077 244.84235968 -238.00610352 232.59692383 C-242.25512448 229.87968158 -242.25512448 229.87968158 -243.99829102 228.31567383 C-243.99829102 227.65567383 -243.99829102 226.99567383 -243.99829102 226.31567383 C-244.59125977 226.05012695 -245.18422852 225.78458008 -245.79516602 225.51098633 C-255.74317988 220.11365966 -261.43923137 205.6693742 -264.81079102 195.37817383 C-265.24373535 193.69981169 -265.63461685 192.01039545 -265.99829102 190.31567383 C-266.27415039 189.05368164 -266.55000977 187.79168945 -266.83422852 186.49145508 C-271.37919217 164.29046313 -268.77757018 142.7852797 -258.99829102 122.31567383 C-258.67199707 121.62876465 -258.34570312 120.94185547 -258.00952148 120.23413086 C-251.34615185 106.45031491 -243.19653305 94.8314045 -231.99829102 84.31567383 C-231.17329102 83.49067383 -230.34829102 82.66567383 -229.49829102 81.81567383 C-228.67329102 80.99067383 -227.84829102 80.16567383 -226.99829102 79.31567383 C-226.43883789 78.73301758 -225.87938477 78.15036133 -225.30297852 77.55004883 C-217.8310736 69.86638953 -209.58077784 63.17138523 -200.71313477 57.15942383 C-198.82857854 55.87955255 -196.96782397 54.56420398 -195.12719727 53.22192383 C-173.9820965 38.07807182 -149.53789913 27.50640985 -124.99829102 19.31567383 C-124.13880859 19.02015625 -123.27932617 18.72463867 -122.39379883 18.42016602 C-103.28156134 11.8539512 -83.71933612 7.50368709 -63.74829102 4.56567383 C-63.06733368 4.46471405 -62.38637634 4.36375427 -61.68478394 4.25973511 C-56.79708058 3.54409237 -51.90220634 2.9093859 -46.99829102 2.31567383 C-46.24055389 2.22138092 -45.48281677 2.12708801 -44.70211792 2.02993774 C-29.81186829 0.22667865 -14.9877043 -0.02511438 0 0 Z"
    />
    <path
      transform="translate(1218,526)"
      d="M0 0 C8.29075606 1.12037244 16.14417767 3.53799376 23.83984375 6.75390625 C29.23803167 8.88248715 34.73572185 10.73390714 40.22045898 12.62597656 C41.06552002 12.91827148 41.91058105 13.21056641 42.78125 13.51171875 C43.9269043 13.90556763 43.9269043 13.90556763 45.09570312 14.30737305 C47 15 47 15 49 16 C47.91253996 21.87646677 46.01786595 27.38654508 44 33 C43.55889893 34.22831543 43.55889893 34.22831543 43.10888672 35.48144531 C30.36819978 70.48527032 10.01352047 100.50736474 -16 127 C-16.59449951 127.61278809 -17.18899902 128.22557617 -17.80151367 128.85693359 C-21.52263065 132.65063011 -25.36555538 136.11673341 -29.5625 139.375 C-30.16400879 139.84268799 -30.76551758 140.31037598 -31.38525391 140.79223633 C-60.78394687 163.32511432 -96.62376258 176.97553907 -134 174 C-165.88355344 169.76059601 -194.36637073 156.61363395 -221.77294922 140.30957031 C-225.27384317 138.25094335 -228.82460951 136.28408158 -232.375 134.3125 C-237.26186396 131.58806128 -242.06110995 128.76742809 -246.8125 125.8125 C-252.43601307 122.31587253 -258.15566235 119.10948734 -264 116 C-265.26613079 115.30430514 -266.53171893 114.60762212 -267.796875 113.91015625 C-294.52362396 99.30694618 -324.63540595 86.47319622 -355.6875 93.0625 C-366.48095326 96.45427533 -375.50081235 102.71066113 -384 110 C-384.60070312 110.45632813 -385.20140625 110.91265625 -385.8203125 111.3828125 C-403.57924408 125.17695935 -412.56709772 149.06900616 -421 169 C-421.60585296 170.41705945 -422.21245521 171.83379916 -422.8203125 173.25 C-423.20960938 174.1575 -423.59890625 175.065 -424 176 C-434.99039744 172.84803696 -445.66353656 168.90414918 -456.38720703 164.95751953 C-460.04257367 163.61792432 -463.7071408 162.30493472 -467.375 161 C-468.47585938 160.608125 -469.57671875 160.21625 -470.7109375 159.8125 C-471.46632813 159.544375 -472.22171875 159.27625 -473 159 C-465.40943224 110.86234876 -426.6205686 59.80301802 -388.6171875 31.20703125 C-357.74176054 8.94207815 -321.09987189 -1.17836437 -283.1796875 4.23046875 C-276.60080445 5.33110063 -270.2803041 7.36925131 -263.94482422 9.41259766 C-261.99746021 10.0007671 -260.04833016 10.47299819 -258.06640625 10.9296875 C-253.5127458 12.04052567 -249.29893202 13.77757295 -245 15.625 C-243.75452393 16.15613403 -243.75452393 16.15613403 -242.48388672 16.69799805 C-234.48749966 20.15046224 -226.72463181 23.98242388 -219 28 C-218.21431641 28.40589355 -217.42863281 28.81178711 -216.61914062 29.22998047 C-206.45847428 34.48229379 -196.36186916 39.85032798 -186.3125 45.3125 C-185.42868652 45.79170898 -184.54487305 46.27091797 -183.63427734 46.76464844 C-179.32028255 49.12099789 -175.07118753 51.54463399 -170.875 54.10546875 C-166.59167869 56.69744235 -162.24135853 58.92779642 -157.6875 61 C-156.95748779 61.33684814 -156.22747559 61.67369629 -155.4753418 62.02075195 C-154.004991 62.69894262 -152.53373878 63.37518287 -151.06152344 64.04931641 C-149.20292713 64.90641897 -147.35467017 65.78585664 -145.5078125 66.66796875 C-132.73118618 72.74389496 -119.73833468 76.83522439 -106 80 C-105.09507812 80.22816406 -104.19015625 80.45632813 -103.2578125 80.69140625 C-93.22714838 83.04285702 -82.88428638 82.81945218 -73 80 C-71.96617187 79.75507812 -70.93234375 79.51015625 -69.8671875 79.2578125 C-43.1242521 72.49729415 -27.22977005 53.81757527 -13.4921875 30.88671875 C-4.87781102 16.17014783 -4.87781102 16.17014783 0 0 Z"
    />
  </g>
</svg>
